<svg width="320.11572265625px" height="122px" xmlns="http://www.w3.org/2000/svg" viewBox="89.942138671875 14 320.11572265625 122" style="background: rgba(0, 0, 0, 0);" preserveAspectRatio="xMidYMid"><defs><filter id="editing-vr"><feFlood flood-color="#f00" flood-opacity="0.7" result="c1"></feFlood><feFlood flood-color="#00f" flood-opacity="0.7" result="c3"></feFlood><feComposite operator="in" in="c1" in2="SourceAlpha" result="text-c1"></feComposite><feComposite operator="in" in="c3" in2="SourceAlpha" result="text-c3"></feComposite><feOffset in="text-c1" dx="5" dy="-1" result="text1"></feOffset><feOffset in="text-c3" dx="-5" dy="1" result="text3"></feOffset><feBlend in="SourceGraphic" in2="text1" mode="multiply" result="text4"></feBlend><feBlend in="text4" in2="text3" mode="multiply"></feBlend></filter></defs><g filter="url(#editing-vr)"><g transform="translate(139.954213231802, 97.36999893188477)"><path d="M30.21-33.92L30.21-33.92L30.21-33.92Q25.02-33.92 21.25-35.65L21.25-35.65L19.20-25.28L31.55-25.28L31.55-25.28Q31.55-21.89 29.86-19.74L29.86-19.74L29.86-19.74Q28.16-17.60 25.09-17.60L25.09-17.60L25.09-17.60Q21.76-17.60 18.69-18.82L18.69-18.82L18.69-18.82Q18.05-19.07 17.98-19.14L17.98-19.14L14.34 0L0.38 0L8.51-42.24L37.06-42.24L37.06-42.24Q37.06-38.34 35.23-36.13L35.23-36.13L35.23-36.13Q33.41-33.92 30.21-33.92ZM47.30 0.83L43.20 0.70L43.20 0.70Q41.22 0.64 39.14 0.64L39.14 0.64L39.14 0.64Q37.06 0.64 35.01 0.90L35.01 0.90L35.01 0.90Q34.75-0.13 34.75-1.34L34.75-1.34L34.75-1.34Q34.75-3.90 36.19-5.44L36.19-5.44L36.19-5.44Q37.63-6.98 39.87-6.98L39.87-6.98L43.33-6.98L48.70-31.17L48.70-31.17Q46.72-29.18 42.62-29.18L42.62-29.18L42.62-29.18Q40.58-29.18 38.98-31.10L38.98-31.10L38.98-31.10Q37.38-32.90 37.12-35.46L37.12-35.46L37.12-35.46Q46.59-37.12 60.74-43.46L60.74-43.46L62.78-41.02L56.58-6.98L58.18-6.98L58.18-6.98Q62.02-6.98 64-7.68L64-7.68L64-7.68Q64.83-6.27 64.83-3.97L64.83-3.97L64.83-3.97Q64.83-1.66 63.14-0.29L63.14-0.29L63.14-0.29Q61.44 1.09 58.62 1.09L58.62 1.09L58.62 1.09Q52.93 1.09 47.30 0.83L47.30 0.83ZM88.64 0L81.60 0L89.28-42.24L103.04-42.24L113.02-13.18L118.34-42.24L125.44-42.18L117.63 0L102.98 0L93.76-27.97L88.64 0ZM140.99 1.28L140.99 1.28L140.99 1.28Q126.91 1.28 126.91-11.97L126.91-11.97L126.91-11.97Q126.91-21.38 132.10-27.46L132.10-27.46L132.10-27.46Q137.60-33.92 147.14-33.92L147.14-33.92L147.14-33.92Q154.05-33.92 157.57-30.72L157.57-30.72L157.57-30.72Q161.09-27.52 161.09-20.80L161.09-20.80L161.09-20.80Q161.09-10.56 155.58-4.61L155.58-4.61L155.58-4.61Q150.21 1.28 140.99 1.28ZM142.66-26.56L142.66-26.56L142.66-26.56Q141.89-24.83 141.28-22.24L141.28-22.24L141.28-22.24Q140.67-19.65 139.90-15.55L139.90-15.55L139.90-15.55Q139.14-11.46 139.14-6.40L139.14-6.40L139.14-6.40Q139.14-4.74 139.68-3.65L139.68-3.65L139.68-3.65Q140.22-2.56 141.70-2.56L141.70-2.56L141.70-2.56Q143.17-2.56 144.10-3.26L144.10-3.26L144.10-3.26Q145.02-3.97 145.73-5.63L145.73-5.63L145.73-5.63Q147.01-8.58 148.03-14.05L148.03-14.05L148.03-14.05Q149.06-19.52 149.15-21.89L149.15-21.89L149.15-21.89Q149.25-24.26 149.25-26.02L149.25-26.02L149.25-26.02Q149.25-27.78 148.74-28.93L148.74-28.93L148.74-28.93Q148.22-30.08 146.78-30.08L146.78-30.08L146.78-30.08Q145.34-30.08 144.38-29.18L144.38-29.18L144.38-29.18Q143.42-28.29 142.66-26.56ZM212.61-10.69L212.61-10.69Q208.38-4.86 204.32-1.79L204.32-1.79L204.32-1.79Q200.26 1.28 196.06 1.28L196.06 1.28L196.06 1.28Q191.87 1.28 190.40 0.45L190.40 0.45L190.40-13.63L190.40-13.63Q186.75-3.90 180.22-0.13L180.22-0.13L180.22-0.13Q177.86 1.28 175.62 1.28L175.62 1.28L175.62 1.28Q171.33 1.28 169.47 0.45L169.47 0.45L169.47 0.45Q169.02-14.21 168.64-18.27L168.64-18.27L168.64-18.27Q168.26-22.34 167.94-24.83L167.94-24.83L167.94-24.83Q167.30-29.82 165.12-31.87L165.12-31.87L165.12-31.87Q167.87-33.92 171.71-33.92L171.71-33.92L171.71-33.92Q179.14-33.92 180.16-24.70L180.16-24.70L180.16-24.70Q180.42-22.53 180.42-20.22L180.42-20.22L180.42-20.22Q180.42-16.77 179.65-4.74L179.65-4.74L179.65-4.74Q181.18-5.44 182.82-7.97L182.82-7.97L182.82-7.97Q184.45-10.50 185.79-13.95L185.79-13.95L185.79-13.95Q188.80-21.95 188.80-28.86L188.80-28.86L188.80-28.86Q188.80-29.95 188.51-31.10L188.51-31.10L188.51-31.10Q188.22-32.26 187.90-32.58L187.90-32.58L187.90-32.58Q190.14-33.92 193.57-33.92L193.57-33.92L193.57-33.92Q196.99-33.92 198.62-31.58L198.62-31.58L198.62-31.58Q200.26-29.25 200.70-24.96L200.70-24.96L200.70-24.96Q201.22-19.52 201.22-16.26L201.22-16.26L201.22-16.26Q201.22-11.71 200.77-4.99L200.77-4.99L200.77-4.99Q203.97-7.30 206.59-14.85L206.59-14.85L206.59-14.85Q209.22-22.40 209.22-27.78L209.22-27.78L209.22-27.78Q209.22-30.14 208.83-31.55L208.83-31.55L208.83-31.55Q210.94-33.92 214.59-33.92L214.59-33.92L214.59-33.92Q216.83-33.92 218.46-32.70L218.46-32.70L218.46-32.70Q220.10-31.49 220.10-29.22L220.10-29.22L220.10-29.22Q220.10-26.94 219.42-24.51L219.42-24.51L219.42-24.51Q218.75-22.08 217.66-19.58L217.66-19.58L217.66-19.58Q215.55-14.59 212.61-10.69L212.61-10.69Z" fill="#444"></path></g></g><style>text {
  font-size: 64px;
  font-family: Arial Black;
  dominant-baseline: central;
  text-anchor: middle;
}</style></svg>